<svg width="1em" height="1em" viewBox="0 0 27 24" fill="currentColor" xmlns="http://www.w3.org/2000/svg"><g clip-path="url(#caddy_svg__clip0_2884_32717)"><path d="M1.125 0C.502 0 0 .502 0 1.125S.502 2.25 1.125 2.25h2.442l2.827 14.836c.103.53.567.914 1.106.914h15.375c.623 0 1.125-.502 1.125-1.125s-.502-1.125-1.125-1.125H8.433l-.427-2.25h14.86a1.5 1.5 0 001.443-1.092l2.532-9A1.502 1.502 0 0025.397 1.5H5.719L5.606.914A1.13 1.13 0 004.5 0H1.125zM8.25 24a2.25 2.25 0 10-.001-4.501A2.25 2.25 0 008.25 24zM24 21.75a2.25 2.25 0 10-4.501.001A2.25 2.25 0 0024 21.75z"></path></g><defs><clipPath id="caddy_svg__clip0_2884_32717"><path d="M0 0h27v24H0z"></path></clipPath></defs></svg>